# Blender v2.91.2 OBJ File: ''
# www.blender.org
o Lowpolyheart
v 0.038012 0.838299 0.000000
v -0.617341 1.850566 0.044422
v -0.000366 2.079650 1.040815
v -1.322121 2.709599 1.036167
v -2.348124 2.283015 1.049097
v -1.625088 0.992175 0.062911
v -2.857371 0.917100 1.031464
v -2.865111 1.701368 1.036134
v -0.465360 -0.344797 0.055702
v 0.464676 -0.341289 0.055435
v 0.037398 -2.709599 1.026846
v -1.625760 2.283826 1.360162
v -0.957540 2.271646 1.627042
v -2.111881 1.517686 1.634422
v -1.331405 1.646391 1.907952
v 0.000000 1.165712 1.721137
v -1.869300 0.134326 1.631242
v -0.614100 -1.577713 1.629082
v -0.969879 -1.691015 1.022747
v -0.063857 -0.923763 1.786643
v 0.614296 -1.577449 1.629097
v 0.617340 1.850566 0.044422
v 1.322121 2.709599 1.036167
v 2.348124 2.283014 1.049095
v 2.865111 1.701368 1.036132
v 1.720642 0.992207 0.063024
v 2.857449 0.917166 1.031464
v 1.625759 2.283826 1.418001
v 2.116442 1.527899 1.627293
v 0.957540 2.271646 1.627042
v 1.341149 1.581036 1.960293
v 1.677467 0.241902 1.643262
v 1.682612 0.236062 1.641617
v 0.873609 -1.733162 1.028216
vn 0.6957 0.4741 -0.5397
vn 0.3899 0.8149 -0.4288
vn -0.2691 0.6251 -0.7327
vn -0.3742 0.4215 -0.8260
vn -0.6179 -0.0014 -0.7863
vn 0.0012 -0.3797 -0.9251
vn -0.2560 0.6943 0.6726
vn -0.2830 0.7004 0.6553
vn -0.4972 0.4250 0.7564
vn 0.2318 0.2800 0.9316
vn 0.3977 0.8373 0.3752
vn -0.6235 -0.0108 0.7817
vn -0.3216 -0.0586 0.9451
vn 0.5214 0.5097 0.6844
vn -0.6242 -0.6154 0.4813
vn -0.7041 -0.5112 0.4928
vn -0.5743 -0.1026 0.8122
vn 0.1483 0.0265 0.9886
vn 0.0001 -0.4697 0.8828
vn 0.0000 -0.2343 0.9722
vn -0.6962 -0.5111 0.5040
vn -0.1496 -0.1109 0.9825
vn -0.0001 -0.0470 -0.9989
vn -0.0405 -0.0298 -0.9987
vn -0.7174 0.4345 -0.5446
vn -0.3897 0.8149 -0.4290
vn 0.2691 0.6251 -0.7327
vn 0.4343 0.4039 -0.8051
vn 0.6484 -0.0018 -0.7613
vn 0.4003 0.4765 0.7827
vn 0.2650 0.4132 0.8712
vn 0.3591 0.5598 0.7468
vn 0.4979 0.4257 0.7555
vn -0.2569 0.3006 0.9185
vn -0.3975 0.8373 0.3753
vn 0.6212 -0.0107 0.7836
vn 0.3848 -0.1200 0.9151
vn -0.0696 0.2132 -0.9745
vn -0.5212 0.5095 0.6847
vn 0.5286 -0.1701 0.8317
vn 0.7697 -0.4533 0.4496
vn 0.6003 -0.4502 0.6610
vn 0.5702 -0.4260 -0.7024
vn 0.4948 -0.4227 -0.7593
vn 0.0404 -0.0323 -0.9987
vn 0.4377 -0.4077 -0.8014
vn 0.3624 0.4481 -0.8172
vn 0.0353 0.0237 -0.9991
vn -0.4194 0.3910 -0.8193
vn -0.0359 0.0206 -0.9991
vn -0.1568 -0.1236 0.9799
vn -0.3554 0.5516 0.7546
vn -0.3154 0.4909 0.8121
vn -0.3426 0.5017 0.7943
vn -0.1864 0.0365 0.9818
vn 0.1983 -0.1780 0.9638
vn 0.1419 -0.0904 0.9857
vn -0.1826 0.1143 -0.9765
vn 0.1927 0.7277 0.6583
vn 0.3031 0.7469 0.5918
vn 0.6800 -0.5830 0.4446
vn -0.5412 -0.4311 -0.7220
vn 0.0278 0.0234 -0.9993
vn -0.4871 -0.4184 -0.7666
s off
f 1/1/1 2/1/1 3/1/1
f 2/1/2 4/1/2 3/1/2
f 4/1/3 2/1/3 5/1/3
f 5/1/4 2/1/4 6/1/4
f 6/1/5 7/1/5 8/1/5
f 9/1/6 10/1/6 11/1/6
f 4/1/7 12/1/7 13/1/7
f 5/1/8 12/1/8 4/1/8
f 8/1/9 14/1/9 5/1/9
f 15/1/10 16/1/10 13/1/10
f 3/1/11 4/1/11 13/1/11
f 7/1/12 14/1/12 8/1/12
f 14/1/13 17/1/13 15/1/13
f 13/1/14 16/1/14 3/1/14
f 11/1/15 18/1/15 19/1/15
f 17/1/16 7/1/16 19/1/16
f 7/1/17 17/1/17 14/1/17
f 16/1/18 15/1/18 20/1/18
f 11/1/19 21/1/19 18/1/19
f 18/1/20 21/1/20 20/1/20
f 19/1/21 18/1/21 17/1/21
f 18/1/22 20/1/22 17/1/22
f 9/1/23 1/1/23 10/1/23
f 1/1/24 9/1/24 6/1/24
f 1/1/25 3/1/25 22/1/25
f 23/1/26 22/1/26 3/1/26
f 23/1/27 24/1/27 22/1/27
f 25/1/28 26/1/28 24/1/28
f 27/1/29 26/1/29 25/1/29
f 28/1/30 29/1/30 24/1/30
f 29/1/31 28/1/31 30/1/31
f 29/1/32 30/1/32 31/1/32
f 29/1/33 25/1/33 24/1/33
f 30/1/34 16/1/34 31/1/34
f 23/1/35 3/1/35 30/1/35
f 27/1/36 25/1/36 29/1/36
f 29/1/37 31/1/37 32/1/37
f 31/1/38 33/1/38 32/1/38
f 30/1/39 3/1/39 16/1/39
f 27/1/40 29/1/40 32/1/40
f 34/1/41 32/1/41 21/1/41
f 34/1/42 27/1/42 32/1/42
f 26/1/43 27/1/43 34/1/43
f 26/1/44 34/1/44 11/1/44
f 1/1/45 26/1/45 10/1/45
f 10/1/46 26/1/46 11/1/46
f 24/1/47 26/1/47 22/1/47
f 22/1/48 26/1/48 1/1/48
f 8/1/49 5/1/49 6/1/49
f 1/1/50 6/1/50 2/1/50
f 17/1/51 20/1/51 15/1/51
f 14/1/52 15/1/52 13/1/52
f 14/1/53 13/1/53 12/1/53
f 5/1/54 14/1/54 12/1/54
f 16/1/55 20/1/55 31/1/55
f 20/1/56 33/1/56 31/1/56
f 20/1/57 21/1/57 33/1/57
f 21/1/58 32/1/58 33/1/58
f 30/1/59 28/1/59 23/1/59
f 23/1/60 28/1/60 24/1/60
f 11/1/61 34/1/61 21/1/61
f 7/1/62 6/1/62 11/1/62
f 7/1/63 11/1/63 19/1/63
f 11/1/64 6/1/64 9/1/64
